VAiN . P R E S E N T S . . .

The Call 2013 TS XViD - VAiN

iMDB........: http://www.imdb.com/title/tt1911644/
PLOT........: When a veteran 911 operator takes a life-altering
call from a teenage girl who has just been abducted, she realizes
that she must confront a killer from her past in order to save the
girl's life.


T E C H N i C A L . i N F O . . .      
General
Complete name                            : \The Call 2013 TS XViD - VAiN\The Call 2013 TS XViD - VAiN.avi
Format                                   : AVI
Format/Info                              : Audio Video Interleave
File size                                : 1.42 GiB
Duration                                 : 1h 27mn
Overall bit rate                         : 2 317 Kbps
Writing application                      : VirtualDubMod 1.5.10.2 (build 2540/release)
Writing library                          : VirtualDubMod build 2540/release

Video
ID                                       : 0
Format                                   : MPEG-4 Visual
Format profile                           : Advanced Simple@L5
Format settings, BVOP                    : 2
Format settings, QPel                    : No
Format settings, GMC                     : No warppoints
Format settings, Matrix                  : Default (H.263)
Muxing mode                              : Packed bitstream
Codec ID                                 : XVID
Codec ID/Hint                            : XviD
Duration                                 : 1h 27mn
Bit rate                                 : 2 113 Kbps
Width                                    : 720 pixels
Height                                   : 392 pixels
Display aspect ratio                     : 16:9
Original display aspect ratio            : 1.85:1
Frame rate                               : 29.970 fps
Color space                              : YUV
Chroma subsampling                       : 4:2:0
Bit depth                                : 8 bits
Scan type                                : Progressive
Compression mode                         : Lossy
Bits/(Pixel*Frame)                       : 0.250
Stream size                              : 1.30 GiB (91%)
Writing library                          : XviD 64

Audio
ID                                       : 1
Format                                   : MPEG Audio
Format version                           : Version 1
Format profile                           : Layer 3
Codec ID                                 : 55
Codec ID/Hint                            : MP3
Duration                                 : 1h 27mn
Bit rate mode                            : Constant
Bit rate                                 : 192 Kbps
Channel(s)                               : 2 channels
Sampling rate                            : 44.1 KHz
Compression mode                         : Lossy
Stream size                              : 121 MiB (8%)
Alignment                                : Split accross interleaves
Interleave, duration                     : 33 ms (1.00 video frame)
Interleave, preload duration             : 500 ms
Writing library                          : LAME3.98.4



E N C O D E R S . N O T E S . . .      

SOURCE......:
V - The Call 2013 720P CAM Xvid UnKnOwN
A - Tooth Fairy
(many thanks to both )
SAMPLE......: Yes
ADDED NOTE..: Tweaked a few things + cleaned
a bit, still dark ina few places but not much
i could do without having massive glares
or grey blacks, anyway isnt too bad imo,
check the sample first, oh & of course
massive thanks to syncer again :bow:
R5 is due very soon
Enjoy...


S C R E E N . S H O T S . . .
 
http://i.imgur.com/zuHNhv1.png 
http://i.imgur.com/UqQtC3G.png 
http://i.imgur.com/LteG6iB.png 
http://i.imgur.com/eLO20gl.png